<svg width="1814" height="780" viewBox="0 0 1814 780" fill="none" xmlns="http://www.w3.org/2000/svg">
<path fill-rule="evenodd" clip-rule="evenodd" d="M410.036 572.526C407.541 577.889 405.045 583.252 402.55 588.615C365.715 439.618 432.342 322.142 545.232 245.063C592.294 168.339 650.498 110.698 736.931 59.5253C740.454 59.6318 743.976 59.7385 747.499 59.8451C671.321 113.18 617.16 158.437 568.243 230.282C616.975 200.863 672.856 178.342 731.951 163.348C764.295 113.92 781.901 92.422 839.301 59.2262C843.509 59.8574 847.718 60.4883 851.926 61.1194C796.708 97.2782 779.728 109.932 747.653 159.55C952.254 112.74 1113.74 176.086 1306.19 239.139C1308.32 243.26 1310.45 247.382 1312.58 251.503C1149.68 203.096 973.549 135.939 799.86 166.216C575.479 205.329 361.524 343.504 410.036 572.526Z" fill="#FEFEFE" fill-opacity="0.03"/>
<path fill-rule="evenodd" clip-rule="evenodd" d="M809.852 583.869C847.864 615.725 857.568 664.633 836.913 678.066C774.608 718.588 483.955 616.29 574.522 512.01C615.043 468.156 573.772 450.674 560.534 405.652C539.038 332.548 612.258 211.464 708 243.661C763.06 262.177 764.46 293.076 774.435 339.081C783.799 378.832 790.162 397.238 820.962 406.722C878.338 424.39 925.52 409.033 964.049 378.695C1053.88 307.961 1042.61 217.083 988.337 131.8L977.094 115.453C879.863 41.1089 727.24 51.9411 596.912 101.95C450.348 239.531 340.771 390.908 315.48 585.542C362.69 588.882 393.144 628.621 373.055 672.627C520.983 611.071 472.635 514.042 402.548 588.615C429.136 516.453 496.03 545.608 489.013 593.722C482.289 639.829 412.528 673.837 364.457 683.237C369.518 630.471 358.148 588.583 282.437 599.137C278.813 568.017 274.29 540.153 280.531 512.475C292.342 460.099 322.688 410.327 329.996 354.03C334.327 180.447 535.019 88.2799 715.537 55.9665C832.242 35.0755 896.3 36.1842 990.964 107.518C1120.42 95.2269 1255.01 150.283 1319.92 246.144C1349.68 249.014 1351.16 247.916 1380.15 246.541C1434.81 243.066 1459.23 232.375 1495.3 275.059C1560.67 372.39 1657.59 360.479 1627.52 237.499C1617.79 194.367 1620.98 161.126 1648.92 134.135C1680.88 103.267 1720.63 100.003 1764.71 111.747C1710.92 109.44 1675.99 119.582 1659.43 135.57C1616.86 176.674 1669.48 261.976 1640.48 314.903C1633.22 328.169 1624.23 338.158 1614.47 343.334C1581.21 360.968 1530.79 334.875 1493.57 294.193C1454.82 256.125 1456.91 254.408 1399.7 257.184C1371.16 258.712 1353.8 259.183 1326.77 256.845C1337.28 274.237 1345.56 292.857 1351.17 312.574C1390.39 450.357 1248.38 430.945 1192.84 520.133C1189 516.473 1185.17 512.812 1181.34 509.152C1239.75 427.516 1333.58 433.652 1333.59 346.693C1333.6 204.338 1148.19 112.29 997.467 117.402C1016.86 151.918 1037.87 187.568 1041.35 226.42C1051.41 338.981 967.319 441.78 838.473 426.311C756.123 416.424 760.05 293.366 723.489 268.321C664.789 228.111 596.373 272.117 573.852 339.051C561.508 375.736 565.935 401.141 584.392 435.281C609.006 473.847 617.822 480.391 591.707 508.349C558.534 543.865 564.087 555.174 584.346 582.084C627.875 639.904 722.236 676.834 798.846 677.308C868.255 677.737 829.321 612.572 809.852 583.869ZM576.227 110.268C457.642 160.463 361.863 242.333 351.094 319.102C344.682 376.496 333.092 408.683 313.015 461.542C297.641 502.019 284.389 544.516 294.448 586.413C298.215 585.851 301.916 585.514 305.541 585.382C326.949 403.785 425.446 232.766 576.227 110.268Z" fill="#FEFEFE" fill-opacity="0.03"/>
<path fill-rule="evenodd" clip-rule="evenodd" d="M676.246 480.06C673.97 481.575 671.694 483.091 669.418 484.606C625.595 445.71 601.819 416.816 600.859 381.579C593.453 109.786 1299.73 269.692 1264.91 349.691C1260.14 360.645 1243.69 365.475 1222.51 369.168C1210.88 370.137 1199.24 371.107 1187.6 372.076C1120.63 379.615 1077.62 416.854 1135.74 470.299C1143.16 476.251 1150.59 482.204 1158.01 488.156C1170.48 497.352 1181.31 503.497 1190.26 512.296C1209.35 531.076 1207.87 549.181 1197.46 565.436C1177.53 596.56 1142.57 605.774 1107.98 620.753C1053.98 646.495 1001.86 658.128 999.084 698.354C994.776 760.833 1076.42 801.669 1114.4 716.894C1106.66 769.877 1068 786.597 1036.54 775.319C1003.81 763.585 967.107 705.966 982.526 674.645C988.777 661.947 1002.26 657.959 1025.28 645.735C1053.2 633.088 1081.11 620.44 1109.03 607.793C1155.32 586.902 1215.56 562.916 1165.92 510.57C1155.5 501.264 1145.09 491.959 1134.67 482.654C1114.06 464.239 1100.63 447.753 1097.98 420.168C1095.51 394.428 1111.24 375.683 1148.94 366.605C1178.99 359.369 1236.82 368.856 1250.75 344.153C1265.26 318.417 1169.68 292.821 1151.04 285.848C1080.15 267.257 1019.19 250.308 944.986 242.517C827.275 230.157 691.685 239.483 630.795 323.346C599.708 366.161 608.611 423.779 676.246 480.06Z" fill="#FEFEFE" fill-opacity="0.03"/>
<path fill-rule="evenodd" clip-rule="evenodd" d="M676.244 480.06C668.762 408.905 682.006 359.148 763.06 329.654C858.906 294.776 1036.11 335.428 1111.14 393.169C1112.9 390.572 1114.67 387.975 1116.44 385.379C1056.01 348.973 968.081 313.649 872.05 308.548C764.245 302.821 639.151 341.435 669.416 484.606C671.692 483.09 673.968 481.575 676.244 480.06Z" fill="#FEFEFE" fill-opacity="0.03"/>
<path fill-rule="evenodd" clip-rule="evenodd" d="M664.823 574.329C662.298 570.479 659.773 566.63 657.248 562.781C721.774 562.301 755.811 548.271 812.846 527.234C862.434 506.058 893.808 492.257 940.799 495.595C974.515 497.989 1010.2 511.43 1043.55 523.741C1097.9 543.802 1124.68 542.156 1179.68 521.927C1182.69 525.58 1185.71 529.233 1188.73 532.885C1110.68 561.434 1086.16 548.94 1013.19 522.316C940.774 495.895 919.324 493.6 827.415 530.119C773.177 554.038 727.146 571.386 664.823 574.329Z" fill="#FEFEFE" fill-opacity="0.03"/>
<path fill-rule="evenodd" clip-rule="evenodd" d="M1205.06 370.622C1200.3 369.934 1195.54 369.246 1190.78 368.557C1156.97 404.754 1153.07 451.692 1158.29 496.732C1160.93 498.455 1163.56 500.178 1166.2 501.901C1166.4 451.628 1162.18 409.904 1205.06 370.622Z" fill="#FEFEFE" fill-opacity="0.03"/>
<path fill-rule="evenodd" clip-rule="evenodd" d="M811.426 409.616C808.098 408.381 804.77 407.147 801.443 405.912C803.319 458.917 784.285 463.375 732.479 471.1C718.186 472.053 703.892 473.006 689.599 473.959C656.978 478.573 639.327 492.21 637.026 522.251C631.427 595.344 757.672 640.62 827.057 612.478C826.422 611.263 825.786 610.048 825.151 608.833C758.464 630.885 645.005 594.096 647.432 521.13C648.855 478.35 699.385 481.428 732.982 479.706C789.007 474.886 814.129 465.848 811.426 409.616Z" fill="#FEFEFE" fill-opacity="0.03"/>
<path fill-rule="evenodd" clip-rule="evenodd" d="M1077.16 763.34C1075.66 764.057 1074.16 764.775 1072.66 765.492C1057.74 749.191 1031.65 706.915 1056.51 689.162C1067.89 681.029 1110.04 676.663 1125.69 674.395C1168.13 669.563 1302.63 650.465 1314.58 606.887C1320.47 585.416 1303.64 586.15 1287.33 570.94C1269.42 554.235 1267 532.72 1283.66 514.791C1313.14 483.051 1380.68 477.552 1418.18 446.556C1434.41 433.148 1440.39 423.386 1432.56 402.502C1425.29 383.097 1399.29 353.193 1403.93 335.978C1410.44 311.822 1448.23 327.495 1464.13 332.941C1521.14 357.418 1620 402.107 1666.55 354.28C1677.06 343.482 1681.2 334.063 1682.66 324.067C1685.42 305.091 1681.81 287.882 1677.92 269.547C1649.62 136.209 1730.31 177.015 1785.15 110.233C1811.55 78.0991 1785.35 47.5977 1740.9 30.4458C1682.9 8.06797 1595.17 3.9421 1566.42 3.07204C1638.16 -5.37218 1804.49 -1.11329 1812.89 77.565C1818.7 131.935 1762.41 146.702 1715.98 171.326C1676.58 192.223 1677.83 218.683 1684.34 255.575C1686.35 264.642 1688.37 273.71 1690.39 282.777C1727.71 428.01 1557 391.381 1466.61 345.401C1443.67 336.393 1401.49 316.747 1419.16 356.817C1439.04 387.226 1455.48 409.851 1441.93 435.995C1427.42 463.964 1398.26 474.157 1368.2 484.641C1342.23 495.565 1288.12 509.034 1282.09 532.686C1282.11 559.506 1308.42 567.023 1320.3 584.955C1332.48 603.322 1324.45 619.029 1310.39 631.132C1284.46 653.44 1239.19 662.87 1205.19 670.383C1179.62 674.564 1154.06 678.744 1128.49 682.925C1098.19 687.387 1070.4 686.755 1058.69 699.828C1048.43 711.281 1050.23 734.573 1077.16 763.34Z" fill="#FEFEFE" fill-opacity="0.03"/>
<path fill-rule="evenodd" clip-rule="evenodd" d="M709.426 476.474C705.496 476.296 701.567 476.118 697.637 475.939C721.328 417.711 751.994 385.37 791.177 375.929C902.632 349.073 1059.11 468.186 1119.17 542.147C1115.87 542.508 1112.57 542.868 1109.27 543.229C1020.6 457.325 768.759 272.337 709.426 476.474Z" fill="#FEFEFE" fill-opacity="0.03"/>
<path fill-rule="evenodd" clip-rule="evenodd" d="M901.585 417.734C898.23 418.93 894.875 420.125 891.52 421.32C928.355 445.705 960.999 471.988 984.892 507.146C986.811 507.636 988.73 508.127 990.649 508.617C968.077 465.929 943.149 445.66 901.585 417.734Z" fill="#FEFEFE" fill-opacity="0.03"/>
<path fill-rule="evenodd" clip-rule="evenodd" d="M800.415 442.78C799.059 446.716 797.702 450.652 796.346 454.588C837.713 467.166 869.196 479.061 905.499 501.88C907.366 501.605 909.814 499.356 911.682 499.081C873.23 472.3 846.879 459.335 800.415 442.78Z" fill="#FEFEFE" fill-opacity="0.03"/>
<path fill-rule="evenodd" clip-rule="evenodd" d="M767.426 469.294C765.06 470.6 760.45 472.266 758.084 473.573C787.61 485.497 812.782 500.401 833.434 522.416C834.942 521.522 836.45 520.628 837.958 519.734C814.654 497.272 800.297 481.911 767.426 469.294Z" fill="#FEFEFE" fill-opacity="0.03"/>
<path fill-rule="evenodd" clip-rule="evenodd" d="M110.882 318.791C77.4975 426.391 132.016 453.557 226.419 442.57C306.646 433.232 280.537 493.498 252.781 529.404C232.478 562.103 235.35 569.496 246.916 605.523C291.225 719.749 97.8654 756.786 0 688.91C30.5584 704.498 55.5013 714.825 97.1604 714.649C136.163 714.485 172.903 703.899 199.043 683.026C221.566 665.04 237.63 639.713 223.944 603.353C206.538 557.107 219.935 563.88 249.825 512.77C269.441 479.229 269.061 454.358 209.134 459.747C103.846 469.213 27.0513 387.185 110.882 318.791Z" fill="#FEFEFE" fill-opacity="0.03"/>
<path fill-rule="evenodd" clip-rule="evenodd" d="M421.977 566.466C417.997 568.486 414.017 570.506 410.037 572.526C463.174 504.37 513.113 490.195 600.364 482.82C599.612 485.548 598.859 488.276 598.107 491.004C522.977 500.107 491.922 506.601 434.575 555.119C430.375 558.901 426.176 562.684 421.977 566.466Z" fill="#FEFEFE" fill-opacity="0.03"/>
<path fill-rule="evenodd" clip-rule="evenodd" d="M565.515 569.844C563.344 566.544 561.173 563.243 559.002 559.942C515.643 640.937 484.438 654.787 417.27 702.674C400.081 714.929 380.359 729.852 388.702 752.049C405.048 795.541 500.266 783.908 535.898 736.669C510.519 761.655 420.06 796.13 406.52 743.848C403.719 733.033 409.478 724.305 424.641 711.496C486.208 659.485 519.812 665.776 565.515 569.844Z" fill="#FEFEFE" fill-opacity="0.03"/>
<path fill-rule="evenodd" clip-rule="evenodd" d="M585.394 596.631C583.141 594.592 580.887 592.553 578.633 590.514C564.212 636.051 537.049 655.559 499.43 679.017C459.535 703.894 442.376 731.385 439.482 775.184C442.183 775.156 444.883 775.128 447.583 775.101C454.226 734.371 464.781 709.044 505.073 686.184C545.676 663.147 574.315 645.653 585.394 596.631Z" fill="#FEFEFE" fill-opacity="0.03"/>
<path fill-rule="evenodd" clip-rule="evenodd" d="M504.037 759.992C501.746 760.859 499.454 761.726 497.162 762.592C501.39 699.34 557.986 664.059 603.17 615.904C604.955 617.758 606.74 619.612 608.525 621.465C592.679 637.498 576.233 652.549 560.357 668.264C535.69 692.68 506.636 726.714 504.037 759.992Z" fill="#FEFEFE" fill-opacity="0.03"/>
<path fill-rule="evenodd" clip-rule="evenodd" d="M475.586 519.133C472.267 521.06 468.948 522.987 465.629 524.915C467.116 433.287 497.646 372.589 577.408 312.343C575.611 316.923 573.814 321.504 572.017 326.084C509.273 379.656 481.769 443.505 475.586 519.133Z" fill="#FEFEFE" fill-opacity="0.03"/>
<path fill-rule="evenodd" clip-rule="evenodd" d="M568.769 416.602C567.636 414.663 566.504 412.724 565.371 410.785C548.243 440.176 536.413 463.591 533.432 496.773C536.036 496.603 538.641 496.433 541.246 496.264C547.009 462.1 555.368 448.406 568.769 416.602Z" fill="#FEFEFE" fill-opacity="0.03"/>
<path fill-rule="evenodd" clip-rule="evenodd" d="M1320.61 496.401C1314.7 499.75 1308.78 503.1 1302.86 506.45C1312.18 514.041 1321.49 521.633 1330.8 529.224C1380.51 568.396 1434.16 586.072 1478.11 632.739C1500.54 659.942 1500.5 683.052 1511.3 714.496C1517.55 732.669 1525.14 748.58 1535.68 755.169C1575.12 779.846 1626.47 753.486 1631.7 704.686C1610.09 760.2 1540.34 779.572 1525.49 712.437C1514.59 673.957 1500.15 644.675 1480.27 622.38C1438.71 575.755 1379.32 553.303 1320.61 496.401Z" fill="#FEFEFE" fill-opacity="0.03"/>
<path fill-rule="evenodd" clip-rule="evenodd" d="M1422.05 450.502C1425.54 447.872 1429.02 445.242 1432.51 442.613C1440.51 503.213 1453.99 525.347 1492.81 572.614C1557.75 635.271 1583.24 668.556 1586.33 755.932C1584.68 756.607 1583.03 757.282 1581.38 757.956C1570.33 672.543 1551.06 644.281 1491.14 581.298C1445.63 532.491 1434.19 516.134 1422.05 450.502Z" fill="#FEFEFE" fill-opacity="0.03"/>
</svg>
