<svg width="533" height="1296" viewBox="0 0 533 1296" fill="none" xmlns="http://www.w3.org/2000/svg">
<path fill-rule="evenodd" clip-rule="evenodd" d="M679.967 971.076C610.18 1022.38 531.118 1076.01 461.396 1125.99C401.622 1137.14 344.079 1152.94 290.536 1173.38C409.379 1094.11 527.028 1017.22 643.048 933.54C378.072 749.335 99.6813 547.949 22.7375 451.29C-103.16 293.117 329.392 77.7373 448.264 0C351.367 92.8753 115.387 253.828 158.087 387.377C196.52 507.499 338.321 634.573 524.765 778.319C541.82 791.468 648.751 870.775 679.967 894.353V971.076Z" fill="#ED3237" fill-opacity="0.1"/>
<path fill-rule="evenodd" clip-rule="evenodd" d="M114.903 1296C254.857 1187.31 466.866 1133.47 679.967 1132.77V1178.19C510.534 1179.47 341.425 1219.16 114.903 1296Z" fill="#497894" fill-opacity="0.1"/>
</svg>
