<svg width="211" height="138" viewBox="0 0 211 138" fill="none" xmlns="http://www.w3.org/2000/svg">
<path fill-rule="evenodd" clip-rule="evenodd" d="M113.15 137.135C107.17 133.21 85.4097 122.324 91.764 114.37C100.192 103.823 116.224 92.5209 130.957 84.7354C131.732 85.2109 132.507 85.6811 133.282 86.1463C119.514 95.4888 101.408 108.795 98.5732 117.602C96.4108 124.323 108.279 132.45 113.15 137.135Z" fill="#5A697C"/>
<path fill-rule="evenodd" clip-rule="evenodd" d="M92.3406 136.259C85.5671 130.216 60.2824 112.491 69.7424 103.692C80.9276 93.2917 99.8083 83.2661 117.906 76.2354C119.119 77.0737 120.34 77.9023 121.566 78.7217C103.496 87.6709 82.3948 99.4921 77.6867 109.019C73.7188 117.053 87.101 129.468 92.3406 136.259Z" fill="#5A697C"/>
<path fill-rule="evenodd" clip-rule="evenodd" d="M71.6343 131.231C64.3 123.403 36.4126 99.8675 48.4767 90.5117C61.5882 80.3457 82.3189 71.2389 102.704 64.8916C104.201 66.1034 105.728 67.3067 107.279 68.4989C86.2554 76.8926 63.3429 87.6732 57.2647 97.6205C51.7454 106.657 66.1846 122.684 71.6343 131.231Z" fill="#5A697C"/>
<path fill-rule="evenodd" clip-rule="evenodd" d="M51.3152 124.523C43.3452 116.017 13.0421 90.443 26.1518 80.2767C41.0044 68.7598 64.8558 58.495 87.8985 51.5742C89.2116 52.9105 90.58 54.2482 91.998 55.5831C68.6381 64.8084 42.4937 76.8839 35.7006 88.0012C29.703 97.8205 45.3936 115.237 51.3152 124.523Z" fill="#5A697C"/>
<path fill-rule="evenodd" clip-rule="evenodd" d="M22.3277 105.507C15.7939 96.0485 -10.0341 66.6868 4.23457 58.6819C22.5192 48.4271 51.7971 41.4114 77.7882 38.5205C78.0275 39.6516 78.5355 40.765 79.3667 41.8516C79.5186 42.0503 79.6749 42.25 79.8301 42.4491C54.1166 48.0704 21.5704 56.6789 12.4221 67.6089C5.14057 76.312 17.9054 95.5865 22.3277 105.507Z" fill="#5A697C"/>
<path fill-rule="evenodd" clip-rule="evenodd" d="M190.972 5.44727C182.36 8.31807 152.127 14.598 157.335 26.4207C163.959 41.4501 178.927 59.6016 193.846 73.7113L197.202 72.3604C183.667 56.633 167.326 35.8686 166.739 24.6704C166.272 15.7223 183.473 9.61177 190.972 5.44727Z" fill="#ED3237"/>
<path fill-rule="evenodd" clip-rule="evenodd" d="M169.964 1.875C160.132 6.1641 125.21 16.7503 132.59 30.1152C141.583 46.3974 159.9 65.245 178.177 80.0168L182.59 78.241C165.363 61.3834 145.284 39.741 143.473 27.0614C141.978 16.5788 161.579 7.5692 169.964 1.875Z" fill="#ED3237"/>
<path fill-rule="evenodd" clip-rule="evenodd" d="M148.648 0C137.964 4.6605 100.017 16.1637 108.037 30.6862C118.273 49.2205 139.628 70.8135 160.405 87.1699L164.837 85.3859C145.622 66.7682 121.917 41.757 119.862 27.3681C118.237 15.9775 139.536 6.1874 148.648 0ZM184.144 103.654L184.181 103.677L184.153 103.651L184.144 103.654Z" fill="#ED3237"/>
<path fill-rule="evenodd" clip-rule="evenodd" d="M114.504 6C104.762 12.1035 69.4266 28.8558 79.3661 41.8512C93.357 60.1403 121.076 80.0866 145.606 93.1256L149.367 91.6119C127.23 76.0945 94.9551 52.0846 90.4166 36.8903C87.1711 26.017 106.518 13.3627 114.504 6Z" fill="#ED3237"/>
<path fill-rule="evenodd" clip-rule="evenodd" d="M210.429 12.8721C203.385 14.1122 179.093 15.5049 181.783 25.3231C185.405 38.5345 195.909 55.5555 206.519 68.6106L208.776 67.7021C199.822 53.6731 188.435 34.2652 189.315 25.0481C189.988 18.0193 204.103 15.2494 210.429 12.8721Z" fill="#ED3237"/>
</svg>
