<svg width="802" height="972" viewBox="0 0 802 972" fill="none" xmlns="http://www.w3.org/2000/svg">
<path fill-rule="evenodd" clip-rule="evenodd" d="M767.29 493.825C772.627 511.792 776.822 527.229 778.749 541.297C785.074 539.372 791.389 537.644 797.696 536.116C798.44 520.019 796.576 503.155 791.148 484.169C783.682 487.091 775.795 490.312 767.29 493.825ZM290.394 307.719C274.626 303.354 267.799 304.79 248.559 312.426C218.984 319.293 204.048 320.186 185.652 298.486C189.939 296.682 194.484 294.738 199.355 292.665C247.449 272.197 282.92 262.509 309.588 277.288C309.86 262.247 313.453 251.446 319.256 242.627C395.957 246.444 436.388 250.935 499.129 298.999C428.389 297.831 345.825 280.968 290.394 307.719ZM176.435 302.299C218.828 343.331 237.43 314.247 275.184 316.701C270.317 320.182 265.742 324.129 261.501 328.608C231.762 360.017 218.079 394.215 216.863 428.496C203.286 437.047 189.865 446.579 176.574 457.01C174.695 447.765 173.417 437.385 173.074 425.453C151.08 432.857 148.501 432.68 124.726 433.404C152.966 410.15 161.412 395.605 178.691 364.993C103.743 349.053 42.7062 334.988 16.0341 255.309C23.6764 337.021 98.3964 355.472 164.997 373.098C143.981 405.522 132.738 416.555 103.819 440.58C126.462 447.511 139.133 447.078 162.901 442.707C164.242 466.718 167.432 478.486 173.83 493.093C197.23 546.53 202.239 552.261 182.876 609.53C175.881 631.591 171.074 643.329 168.817 659.202C162.189 705.797 183.405 719.491 220.396 740.32C286.32 764.203 324.033 751.147 359.983 693.133C367.91 723.935 371.294 739.603 384.737 758.951C409.756 794.959 446.168 810.772 486.74 817.48C568.398 830.975 611.794 782.236 660.981 888.187C638.706 800.616 596.616 804.107 547.405 807.918C477.328 758.32 416.628 722.545 409.857 627.286C410.96 626.367 412.057 625.485 413.152 624.632C447.475 732.963 486.776 742.671 589.018 767.956C636.575 779.646 671.297 793.403 692.434 815.732C732.617 858.179 723.882 911.499 661.955 912.638C631.76 913.19 604.469 897.466 577.157 886.202C644.329 983.617 801.538 895.888 700.618 795.99C680.056 775.635 650.581 770.96 607.542 759.449C524.091 737.131 442.116 712.713 432.193 612.365C444.458 605.785 458.099 600.314 476.275 591.295C537.95 642.091 584.857 653.729 661.894 662.656C660.35 666.197 659.468 670.251 659.432 675.035C658.656 778.501 846.334 923.797 949.779 947.121C915.819 926.255 840.422 877.523 780.996 822.74C758.413 734.326 765.465 703.579 788.82 631.641C804.699 635.059 818.849 639.274 833.28 645.556C826.601 672.798 829.268 703.082 852.22 742.263C861.522 810.36 940.241 867.841 1002.11 805.682C1095.21 712.162 1162.28 900.501 1197 972C1185.93 901.748 1095.44 674.717 1002.67 770.749C996.957 776.627 991.241 782.505 985.527 788.383C929.031 846.492 842.357 783.637 881.731 706.843C897.972 675.17 926.206 650.195 951.499 623.273C985.682 579.281 982.389 533.662 960.853 492.576C1004.03 462.07 1021.68 432.89 1038.11 381.989C1061.91 407.498 1084.1 442.605 1104.4 494.654C1084.57 378.173 1024.54 341.174 939.175 297.392C893.497 273.967 860.102 254.189 825.28 223.724C749.612 157.515 743.199 85.6761 664.97 34.5998C600.339 -7.59623 536.486 -11.368 468.645 24.2225C373.665 74.0481 413.479 156.326 326.976 216.238C313.236 225.754 304.319 233.7 300.891 255.647C263.851 250.48 234.976 256.513 203.433 275.402C92.0559 340.543 -22.6017 235.741 21.9226 122.619C-40.1157 204.649 41.069 306.254 121.751 313.363C140.526 315.019 155.483 310.763 176.435 302.299ZM521.451 298.763C458.609 250.114 404.895 233.242 327.656 232.397C334.802 225.165 343.546 218.88 352.915 211.561C368.514 199.374 379.008 187.847 387.152 173.997C481.319 178.129 545.059 184.731 629.39 230.717C628.077 270.119 594.075 288.975 547.761 296.266C539.342 297.591 530.541 298.376 521.451 298.763ZM890.255 661.782C877.449 651.897 864.222 643.549 850.55 636.634C856.31 623.819 864.303 610.49 874.016 595.728C885.465 578.326 895.472 563.155 903.132 547.831C919.123 550.093 936.544 554.001 956.996 559.914C955.781 607.439 919.877 634.12 890.255 661.782ZM837.883 630.69C823.66 624.52 808.968 619.805 793.782 616.437C796.656 607.651 799.723 598.263 802.968 588.121C807.256 574.722 810.452 562.712 812.242 551.101C837.314 546.733 858.416 544.519 881.042 545.679C867.204 576.56 848.345 602.501 837.883 630.69ZM777.846 613.419C771.978 612.494 766.039 611.756 760.027 611.197C774.319 592.877 779.856 576.015 779.9 557.296C785.404 556.182 790.682 555.13 795.782 554.143C792.609 573.448 786.04 592.369 777.846 613.419ZM748.257 624.601C756.693 625.86 764.532 627.087 771.928 628.38C770.861 631.052 769.776 633.763 768.677 636.518C744.734 696.528 752.481 748.34 764.908 807.342C703.06 745.768 667.225 679.275 734.916 637.293C739.824 632.937 744.258 628.718 748.257 624.601ZM844.979 651.076C855.838 656.592 867.143 663.418 879.698 672.061C864.587 687.596 852.903 704.238 851.473 725.626C838.579 697.369 837.542 674.509 844.979 651.076ZM956 542.823C940.697 537.615 925.506 533.796 910.383 531.292C917.592 511.986 920.784 491.173 918.28 464.45C919.595 464.551 920.925 464.658 922.269 464.772C935.847 483.435 946.379 504.041 952.228 524.873C953.991 531.155 955.216 537.119 956 542.823ZM887.93 528.53C863.178 526.539 838.551 528.013 813.857 532.643C814.128 516.129 811.122 499.346 803.883 479.339C835.302 467.869 860.727 462.387 897.976 463.371C898.911 488.146 894.68 509.393 887.93 528.53ZM393.612 161.507C396.863 154.372 399.78 146.556 402.632 137.764C407.844 121.708 410.228 112.226 413.324 103.571C420.098 84.6394 430.6 68.9712 443.679 56.4021C569.429 68.9819 675.364 120.864 756.791 221.543C784.154 259.98 836.404 341.083 814.478 389.279C842.145 394.313 870.442 410.69 894.48 433.266C895.437 438.317 896.176 443.223 896.745 448.016C862.205 446.575 829.535 452.325 797.968 464.444C792.682 452.118 785.963 438.531 777.625 423.133L777.611 423.16C777.03 351.12 733.085 277.355 655.48 229.84C653.734 205.302 636.364 175.905 596.166 141.904C615.188 171.323 625.312 195.586 628.395 215.516C550.153 176.242 481.25 159.874 393.612 161.507ZM454.857 46.8505C510.027 5.12201 598.707 8.56734 657.427 49.5971C693.61 74.8822 720.528 108.438 747.298 151.892C766.764 182.855 780.418 208.087 807.142 233.46C828.259 253.509 848.994 268.363 869.252 280.446C874.852 324.573 873.063 342.467 849.919 382.131C845.357 379.305 840.831 376.632 836.379 374.136C805.334 185.774 643.803 57.284 454.857 46.8505ZM886.858 290.375C905.37 300.268 923.447 308.391 941.014 316.67C941.183 364.548 936.319 385.144 906.696 424.998C892.343 411.842 876.951 399.951 861.683 389.714C883.408 356.482 888.507 330.22 886.858 290.375ZM918.564 436.423C947.383 401.481 956.58 371.914 960.019 325.882C981.24 336.566 1001.64 348.562 1021.08 365.511C1007.72 421.2 998.105 440.929 952.152 477.686C942.763 463.126 931.254 449.273 918.564 436.423ZM786.29 469.238C783.543 461.655 780.267 453.728 776.392 445.375C775.116 456.125 772.834 466.77 769.513 477.215C775.075 474.357 780.666 471.696 786.29 469.238ZM485.538 398.35C393.38 363.509 310.956 374.892 233.784 418.388C237.658 396.788 249.232 374.403 271.28 350.558C328.696 288.462 387.192 314.567 491.232 318.611C562.358 320.776 642.827 295.644 654.265 246.186C691.133 266.97 717.265 294.249 733.769 324.362C670.701 407.928 593.689 474.465 486.349 437.377C485.73 435.837 485.115 434.36 484.507 432.954C478.503 419.07 476.009 409.47 498.651 406.818C543.614 408.852 586.003 411.515 619.376 375.445C569.544 389.258 532.064 359.706 497.816 328.132C523.694 375.006 543.563 379.03 592.533 386.65C558.367 398.689 510.851 389.664 485.538 398.35ZM179.053 467.429C192.48 458.71 205.096 450.827 217.127 443.768C219.736 480.859 236.361 517.577 262.465 550.482C274.592 565.768 285.841 578.204 296.052 590.123C274.29 615.874 258.34 646.308 250.594 683.068C239.936 678.945 229.815 673.041 219.894 665.065C271.444 603.913 269.934 518.899 179.815 470.125C179.556 469.237 179.302 468.339 179.053 467.429ZM232.286 435.147C309.472 392.723 365.666 386.024 472.275 407.29C469.333 411.308 467.798 416.557 468.047 423.445C474.891 443.443 479.581 460.528 482.579 476.748C415.549 502.034 351.785 532.055 307.277 577.766C300.217 568.978 292.214 559.108 282.884 546.763C254.308 508.952 232.207 473.02 232.286 435.147ZM640.555 431.474C639.366 500.195 623.235 545.968 582.088 589.982C615.05 587.917 644.01 578.626 668.358 564.213C690.693 501.711 698.916 461.761 688.518 393.55C673.158 408.005 657.289 420.913 640.555 431.474ZM568.863 590.419C605.776 536.936 623.008 503.848 629.447 438.059C612.2 447.621 593.996 454.624 574.47 458.252C563.441 515.264 542.564 550.32 499.505 581.036C524.102 587.551 547.273 590.499 568.863 590.419ZM492.223 453.859C518.547 460.982 542.628 462.558 564.978 459.733C550.893 511.638 532.585 536.16 496.036 573.868C501.261 531.14 505.86 497.091 492.223 453.859ZM688.464 550.345C711.998 498.68 714.341 449.01 698.918 383.462C713.083 369.327 726.875 354 740.586 338.138C773.445 412.631 751.077 500.43 688.464 550.345ZM469.976 585.973C424.184 611.158 406.691 601.941 369.884 650.991L357.309 670.974C344.187 628.54 332.781 610.246 315.488 588.096C355.881 539.754 418.011 507.448 484.823 491.082C488.187 517.42 487.271 543.057 484.165 577.322L469.976 585.973ZM371.998 671.828L375.966 664.704C385.042 652.607 392.925 643.383 400.291 636.041C406.261 730.708 466.118 760.38 534.558 808.848C518.549 809.865 501.929 810.127 485.107 806.71C409.061 791.269 384.476 748.127 371.998 671.828ZM212.02 658.26C204.23 651.055 196.511 642.502 188.697 632.453C189.537 629.708 190.428 626.893 191.369 623.997C225.749 544.567 200.363 525.938 183.984 482.549C251.815 527.486 255.784 603.403 212.02 658.26ZM207.581 678.242C200.806 684.798 193.368 690.982 185.324 696.706C192.519 710.13 208.187 719.956 236.036 728.153C239.142 729.068 242.265 729.881 245.395 730.586C245.577 720.588 246.264 710.975 247.444 701.739C232.842 697.125 219.429 689.464 207.581 678.242ZM181.725 687.107C188.58 682.101 194.877 676.707 200.599 671.001C194.717 664.341 189.287 656.672 184.366 647.914C180.499 663.502 179.176 676.328 181.725 687.107ZM268.932 733.654C268.312 724.27 268.257 715.145 268.737 706.279C290.745 708.909 314.761 705.971 339.734 698.905L339.32 699.563C320.805 725.245 295.438 734.406 268.932 733.654ZM270.437 688.633C275.057 655.594 287.371 626.468 305.334 601.241C323.187 623.354 337.232 646.213 346.413 685.081C316.829 690.769 292.285 692.636 270.437 688.633ZM675.01 648.009C702.889 628.862 757.735 622.302 749.963 518.722C745.479 525.728 740.444 532.566 734.817 539.191C679.725 604.057 601.558 615.112 520.353 605.387C563.521 636.612 621.625 644.974 675.01 648.009Z" fill="#ED3237" fill-opacity="0.15"/>
</svg>
