<svg width="276" height="26" viewBox="0 0 276 26" fill="none" xmlns="http://www.w3.org/2000/svg">
<path d="M275.565 25.048H271.563L269.572 21.068C269.139 20.134 268.683 19.323 268.194 18.633C267.704 17.933 267.06 17.388 266.27 16.999C265.47 16.609 264.369 16.409 262.957 16.409H252.306V25.048H248.759V0.288086H262.957C265.892 0.288086 268.227 0.632683 269.961 1.32198C271.696 2.00038 272.952 2.91199 273.708 4.03499C274.464 5.16899 274.853 6.38098 274.853 7.68198V9.01598C274.853 10.583 274.431 11.984 273.575 13.207C272.73 14.43 271.752 15.175 270.651 15.442C270.751 15.564 272.396 18.766 275.565 25.048ZM262.957 12.863C265.259 12.863 267.015 12.707 268.205 12.396C269.394 12.073 270.206 11.629 270.628 11.062C271.051 10.483 271.262 9.80498 271.262 9.01598V7.68198C271.262 6.90298 271.051 6.22499 270.628 5.64699C270.206 5.06899 269.394 4.62399 268.205 4.31299C267.015 4.00199 265.259 3.84599 262.957 3.84599H252.306V12.863H262.957Z" fill="#ffffff"/>
<path d="M244.034 25.048H217.161V0.288086H244.034V3.84599H220.708V10.873H240.843V14.43H220.708V21.468H244.034V25.048Z" fill="#ffffff"/>
<path d="M202.885 25.048H199.861L191.489 5.75799L183.117 25.048H180.093L169.342 0.288086H173.256L181.594 19.611L189.955 0.288086H193.024L201.362 19.611L209.734 0.288086H213.603L202.885 25.048Z" fill="#ffffff"/>
<path d="M153.253 25.96C151.475 25.96 149.862 25.915 148.417 25.827C146.972 25.738 145.66 25.515 144.47 25.159C143.292 24.804 142.202 24.248 141.201 23.481C139.978 22.547 139.067 21.324 138.466 19.8C137.855 18.288 137.555 16.554 137.555 14.619V11.629C137.555 8.84898 138.099 6.63699 139.211 4.97999C140.323 3.33499 141.891 2.13369 143.936 1.39979C145.982 0.654888 148.372 0.288086 151.13 0.288086H153.253C156.033 0.288086 158.446 0.654888 160.48 1.39979C162.526 2.13369 164.094 3.33499 165.206 4.97999C166.317 6.63699 166.862 8.84898 166.862 11.629V14.619C166.862 17.377 166.317 19.589 165.206 21.257C164.094 22.913 162.526 24.114 160.48 24.848C158.446 25.593 156.033 25.96 153.253 25.96ZM153.253 22.413C156.945 22.413 159.535 21.846 161.036 20.734C162.537 19.611 163.282 17.577 163.282 14.619V11.629C163.282 8.64898 162.537 6.61398 161.036 5.50298C159.535 4.39098 156.945 3.84599 153.253 3.84599C150.685 3.84599 148.651 3.93499 147.139 4.13499C145.638 4.33499 144.381 4.82398 143.381 5.60298C142.602 6.16998 142.024 6.91498 141.657 7.83698C141.29 8.75998 141.101 10.016 141.101 11.629V14.619C141.101 17.577 141.857 19.611 143.369 20.734C144.87 21.846 147.461 22.413 151.13 22.413H153.253Z" fill="#ffffff"/>
<path d="M111.127 25.048H107.58V0.321281L121.778 0.288086C124.691 0.288086 127.015 0.621788 128.749 1.28879C130.494 1.94469 131.74 2.82309 132.518 3.91299C133.285 4.99099 133.674 6.18098 133.674 7.45898V8.75999C133.674 10.039 133.285 11.228 132.518 12.307C131.74 13.397 130.494 14.275 128.749 14.931C127.015 15.598 124.691 15.932 121.778 15.932H111.127V25.048ZM121.778 12.34C124.102 12.34 125.858 12.195 127.037 11.907C128.226 11.606 129.027 11.195 129.449 10.65C129.872 10.105 130.083 9.47199 130.083 8.75999V7.45898C130.083 6.71398 129.872 6.08098 129.449 5.54698C129.027 5.02398 128.226 4.60199 127.037 4.30199C125.858 3.98999 124.102 3.84599 121.778 3.84599H111.127V12.34H121.778Z" fill="#ffffff"/>
<path d="M83.835 0.349609H90.5027V3.94501H83.835V0.349609Z" fill="#ED3237"/>
<path d="M78.2289 25.371H74.6821V3.94501H62.3965V0.349609H81.4036V3.94501H78.2289V25.371Z" fill="#ffffff"/>
<path d="M46.8864 25.141C44.3289 25.141 42.2054 25.044 40.5377 24.862C38.8701 24.668 37.4134 24.238 36.1794 23.571C35.112 22.958 34.3006 22.163 33.7445 21.163C33.1886 20.162 32.9219 19.108 32.9219 17.99V15.656H36.4687V17.99C36.4687 18.85 36.702 19.56 37.1801 20.119C37.6581 20.679 38.5144 21.077 39.7596 21.334C40.9937 21.582 42.7504 21.711 45.0297 21.711C48.5985 21.711 51.2224 21.528 52.9013 21.163C54.5802 20.786 55.4249 19.936 55.4249 18.592V17.549C55.4249 16.861 55.3251 16.366 55.1358 16.087C54.9359 15.807 54.5357 15.538 53.9241 15.28C53.0569 14.925 51.9341 14.7 50.5554 14.592C49.1767 14.484 47.3311 14.431 45.0297 14.431C41.2381 14.431 38.4141 14.065 36.5685 13.334C34.1339 12.13 32.9219 10.323 32.9219 7.91396V6.87096C32.9219 5.21496 33.4554 3.91396 34.5451 2.96786C36.5465 1.20416 40.0375 0.322266 45.0297 0.322266C47.6201 0.322266 49.7325 0.408258 51.3891 0.602058C53.0346 0.795658 54.4911 1.22566 55.7474 1.89236C56.815 2.50526 57.6265 3.31196 58.1823 4.30096C58.7272 5.30096 59.0052 6.35496 59.0052 7.47296V9.80696H55.4249V7.47296C55.4249 6.59196 55.1918 5.87096 54.7247 5.33296C54.2575 4.78496 53.4017 4.38696 52.1674 4.12896C50.9334 3.88196 49.1655 3.75296 46.8864 3.75296C44.5293 3.75296 42.5725 3.82796 41.0271 3.97896C39.4817 4.11796 38.3363 4.41896 37.5915 4.85996C36.8467 5.30096 36.4687 5.96796 36.4687 6.87096V7.91396C36.4687 8.60196 36.5685 9.09696 36.7577 9.37696C36.9576 9.65596 37.3691 9.91396 38.0029 10.151C38.8701 10.506 39.993 10.732 41.3717 10.839C42.7504 10.947 44.5848 11 46.8864 11C50.7109 11 53.535 11.377 55.3585 12.13C57.7932 13.312 59.0052 15.119 59.0052 17.549V18.592C59.0052 20.227 58.4605 21.517 57.3817 22.463C55.3806 24.248 51.8895 25.141 46.8864 25.141Z" fill="#ffffff"/>
<path d="M15.6554 25.187C13.9653 25.187 12.4197 25.133 11.0301 25.047C9.6402 24.95 8.3728 24.725 7.2388 24.38C6.0934 24.036 5.0484 23.499 4.0923 22.757C2.9471 21.854 2.0688 20.671 1.4907 19.199C0.901403 17.736 0.612305 16.07 0.612305 14.221V11.329C0.612305 8.66299 1.1347 6.52298 2.2021 4.92198C3.2696 3.30898 4.7707 2.14789 6.7161 1.43819C8.6618 0.717987 10.9634 0.363281 13.6317 0.363281C16.3779 0.363281 18.6349 0.470583 20.4139 0.685883C25.9505 1.35228 28.7191 4.08298 28.7191 8.86698H25.139C25.139 7.69498 24.8609 6.73898 24.3162 5.98598C23.7826 5.24398 22.8151 4.69599 21.4367 4.32999C20.058 3.97499 18.1346 3.80399 15.6554 3.80399C13.2202 3.80399 11.2968 3.88898 9.8738 4.08298C8.4508 4.27698 7.26081 4.73899 6.30471 5.46999C5.59311 6.01799 5.0595 6.73898 4.69271 7.64098C4.3367 8.54498 4.15911 9.76999 4.15911 11.329V14.221C4.15911 16.156 4.47021 17.672 5.10411 18.758C5.73771 19.854 6.7384 20.628 8.128 21.08C9.5179 21.531 11.3523 21.757 13.6317 21.757C16.2224 21.757 18.2458 21.671 19.6909 21.499C21.1476 21.327 22.3819 20.972 23.3715 20.435C24.0717 20.048 24.5389 19.661 24.7722 19.252C25.0167 18.844 25.139 18.295 25.139 17.629V14.511H13.6651V11.039H28.7191V17.629C28.7191 19.973 27.5962 21.822 25.3612 23.166C23.1267 24.509 19.8913 25.187 15.6554 25.187Z" fill="#ffffff"/>
</svg>
