<svg width="57" height="54" viewBox="0 0 57 54" fill="none" xmlns="http://www.w3.org/2000/svg">
<path fill-rule="evenodd" clip-rule="evenodd" d="M38.4392 0C43.3611 3.21881 61.2715 12.1369 56.0585 18.6862C52.8726 22.6885 41.3455 31.027 30.3739 38.6543C35.0215 42.0036 39.5917 45.2088 44.3541 48.3904C42.2547 47.6407 40.0194 47.0519 37.7082 46.6243C34.6535 44.3971 31.6061 42.1048 28.5001 39.954C25.3337 42.1457 22.2328 44.3806 19.1046 46.6231C16.6296 47.0845 14.247 47.7389 12.03 48.585C16.9508 45.3028 21.8222 42.119 26.6262 38.6543C15.6545 31.027 4.1274 22.6885 0.941464 18.6862C-4.27142 12.1369 13.6389 3.21881 18.5609 0C14.5487 3.84558 4.77776 10.51 6.54574 16.0398C8.13713 21.0136 14.0086 26.2752 21.7285 32.2271C23.8807 33.8867 26.1773 35.6 28.5001 37.2953C30.8229 35.6 33.1193 33.8867 35.2715 32.2271C42.9916 26.2752 48.8629 21.0136 50.4543 16.0398C52.2222 10.51 42.4512 3.84558 38.4392 0Z" fill="#ED3237"/>
<path fill-rule="evenodd" clip-rule="evenodd" d="M4.75769 53.6625C16.4846 44.5554 40.4289 44.7441 52.2427 53.6625C32.9637 47.0803 23.7178 47.2312 4.75769 53.6625Z" fill="#497894"/>
</svg>
